<svg width="32" height="32" viewBox="0 0 32 32" fill="none" xmlns="http://www.w3.org/2000/svg">
<path d="M6.84904 13.8301L7.09128 13.3374L7.36432 12.7851L7.62613 12.2595L7.79464 11.9237L7.9585 11.5993L8.11783 11.2863L8.27275 10.9843L8.42341 10.6933C8.44817 10.6457 8.47276 10.5985 8.49718 10.5518L8.64167 10.2769L8.78223 10.0124L8.91897 9.75831C8.94145 9.7168 8.96378 9.67571 8.98595 9.63505L9.11723 9.39604L9.24502 9.16691C9.26603 9.12953 9.28691 9.09256 9.30764 9.05599L9.43045 8.84132C9.45066 8.80633 9.47073 8.77174 9.49067 8.73754L9.60879 8.53694C10.8333 6.47914 11.56 5.93572 12.4967 5.98438C13.4335 6.03304 13.8102 6.27772 14.2377 6.81074L14.2713 6.85327C14.5677 7.234 14.8561 7.75322 15.1669 8.44263L15.245 8.61855L15.3058 8.7579L15.3505 8.8617L15.4239 9.03475L15.5136 9.25097L15.6432 9.57342L15.7509 9.85018L15.8646 10.1504L16.0026 10.5239L16.1544 10.9439L16.4048 11.6505L16.9103 13.1037L17.3981 14.5207L17.5049 14.841L17.7219 15.5079L17.9665 16.2721L18.7165 18.6368L18.749 18.7362L18.8277 18.968L18.9052 19.1902L18.9564 19.333L19.0324 19.5395L19.0826 19.672L19.1325 19.8005L19.1821 19.9249L19.2315 20.0454L19.2807 20.162L19.3298 20.2747L19.3786 20.3836C19.3868 20.4014 19.3949 20.4191 19.403 20.4366L19.4518 20.5399L19.5005 20.6394C19.5086 20.6557 19.5167 20.6718 19.5249 20.6878L19.5736 20.7819L19.6223 20.8724C19.6467 20.9167 19.6711 20.9597 19.6956 21.0014L19.7446 21.0832L19.7938 21.1614C19.802 21.1742 19.8102 21.1868 19.8185 21.1993L19.868 21.2725L19.9177 21.3424C20.3169 21.8886 20.7441 22.1212 21.2809 22.1466L21.3486 22.1488L21.3829 22.149C21.9424 22.149 22.2626 21.991 22.6139 21.4959L22.6656 21.421C22.6743 21.4081 22.683 21.395 22.6917 21.3817L22.7444 21.2994L22.798 21.2119L22.8527 21.1192L22.9087 21.0211L22.9662 20.9175L23.1681 20.5433L23.2377 20.4162L23.3044 20.2972C23.3262 20.2588 23.3476 20.2216 23.3687 20.1856L23.431 20.081C23.6259 19.7596 23.7999 19.5317 24.0292 19.3065C24.5221 18.8224 25.1341 18.5602 25.8689 18.5602C26.5606 18.5602 27.1778 18.7318 27.7636 19.055L27.8446 19.1005L27.9227 19.146L27.9989 19.1922C28.0114 19.2 28.0239 19.2078 28.0364 19.2157L28.111 19.2639L28.1854 19.3139C28.1979 19.3224 28.2104 19.3311 28.2229 19.3398L28.2987 19.3937C28.3115 19.403 28.3243 19.4124 28.3372 19.4219L28.4161 19.4809L28.498 19.5438L28.5837 19.6113L28.721 19.7222L28.8713 19.8462L29.1448 20.0752L29.2476 20.16L29.3459 20.2396L29.4399 20.3141C29.4553 20.3261 29.4704 20.3379 29.4855 20.3495L29.5737 20.4167L29.6584 20.4792C29.6723 20.4892 29.686 20.499 29.6996 20.5087L29.7797 20.5643L29.8572 20.6155C30.2511 20.8691 30.5505 20.9528 30.953 20.9528C31.4898 20.9528 31.9249 21.3879 31.9249 21.9247C31.9249 22.4615 31.4898 22.8967 30.953 22.8967C30.2613 22.8967 29.6441 22.7251 29.0582 22.4019L28.9773 22.3565L28.8991 22.3109L28.823 22.2647C28.8104 22.2569 28.7979 22.2491 28.7854 22.2412L28.7109 22.1931L28.6364 22.143C28.624 22.1345 28.6115 22.1258 28.599 22.1171L28.5232 22.0632C28.5104 22.0539 28.4976 22.0445 28.4846 22.035L28.4058 21.9761L28.3239 21.9131L28.2382 21.8456L28.1008 21.7347L27.9506 21.6107L27.6771 21.3817L27.5742 21.2969L27.4759 21.2173L27.3819 21.1428C27.3666 21.1308 27.3514 21.119 27.3364 21.1074L27.2482 21.0402L27.1634 20.9777C27.1496 20.9677 27.1359 20.9579 27.1223 20.9483L27.0421 20.8926L26.9647 20.8414C26.5708 20.5878 26.2713 20.5042 25.8689 20.5042C25.6312 20.5042 25.4686 20.5751 25.2711 20.83L25.2325 20.8817L25.1927 20.9381L25.1518 20.9995C25.1379 21.0208 25.1238 21.043 25.1094 21.066L25.0655 21.1379C25.058 21.1503 25.0505 21.163 25.0428 21.1759L24.9962 21.256L24.9475 21.342L24.8967 21.4339L24.7048 21.7895L24.6251 21.935L24.5478 22.0724C24.2425 22.6063 23.9821 22.9584 23.6127 23.2867C23.0192 23.8142 22.281 24.0929 21.3829 24.0929C20.1617 24.0929 19.1898 23.5807 18.4375 22.608C18.1149 22.1908 17.8354 21.7031 17.5633 21.0907L17.4981 20.9413C17.4655 20.8653 17.4331 20.7875 17.4006 20.7078L17.3356 20.5457L17.2705 20.3782L17.2052 20.2051L17.1396 20.0264L17.0735 19.8418L17.0069 19.6511C16.9957 19.6188 16.9845 19.5863 16.9733 19.5534L16.8844 19.2888L15.9203 16.2554L15.7009 15.5779L15.5906 15.2445L15.5291 15.0631L14.9639 13.4235L14.6312 12.4673L14.3735 11.7375L14.2185 11.3065L14.0937 10.966L13.9785 10.659L13.8577 10.3456L13.7303 10.0265L13.6305 9.78526L13.5499 9.59528L13.4647 9.39899L13.4335 9.32836L13.3722 9.19187L13.3121 9.06174L13.2533 8.93795L13.1957 8.82049C13.1863 8.80145 13.1768 8.78266 13.1675 8.76414L13.1119 8.65618C13.1027 8.63872 13.0936 8.62151 13.0846 8.60457L13.031 8.50609C12.9251 8.31544 12.8271 8.16264 12.7374 8.04744L12.7036 8.00532C12.6983 7.99888 12.6931 7.99271 12.6881 7.98683L12.6598 7.9549L12.6481 7.94251L12.6364 7.93272C12.5772 7.88313 12.4915 7.88123 12.4302 7.92815L12.4047 7.94977L12.3715 7.98048L12.3346 8.01741C12.3281 8.02409 12.3215 8.03104 12.3148 8.03826L12.2723 8.08484L12.2263 8.13807C12.2183 8.14751 12.2101 8.15723 12.2019 8.16724L12.1503 8.23078L12.0952 8.30142C12.0857 8.3138 12.076 8.32647 12.0662 8.33946L12.0057 8.42107L11.9536 8.49332L11.8854 8.59039L11.8386 8.65861L11.7664 8.76625L11.6917 8.88034L11.5881 9.04261L11.4799 9.21667L11.367 9.4027L11.2792 9.55018L11.158 9.7576L11.0638 9.92135L10.9338 10.1507L10.8331 10.3312L10.6587 10.6481L10.4761 10.9857L10.2851 11.3442L10.0447 11.8025L9.79169 12.2922L9.52581 12.8139L9.29421 13.2735L9.15079 13.5603L8.9042 14.0569L8.64804 14.577C8.6093 14.656 8.57064 14.7342 8.53206 14.8118L8.41652 15.0422C8.3973 15.0803 8.3781 15.1182 8.35892 15.1559L8.24404 15.38L8.12958 15.5998C8.11054 15.6361 8.09152 15.6723 8.07252 15.7082L7.9587 15.9218C7.93977 15.9571 7.92085 15.9922 7.90195 16.0271L7.78876 16.2345L7.67598 16.4377L7.56361 16.6369L7.45163 16.832C7.433 16.8641 7.41439 16.8961 7.39579 16.928L7.28441 17.117L7.17341 17.302L7.0628 17.483C7.02599 17.5427 6.98924 17.6017 6.95256 17.66L6.84269 17.8331L6.7332 18.0023L6.62406 18.1675C6.6059 18.1947 6.58776 18.2218 6.56963 18.2487L6.46103 18.4081L6.35277 18.5637L6.24487 18.7155C6.191 18.7904 6.13726 18.8639 6.08364 18.936L5.97657 19.0784C5.38861 19.8508 4.81547 20.4534 4.2534 20.9034C3.22038 21.7304 2.43246 21.9637 1.43353 21.9729L1.27848 21.9736L1.26805 21.9738L1.25901 21.976C0.792539 22.0812 0.312411 21.8287 0.13895 21.3756L0.12681 21.3421C-0.0469457 20.8342 0.223933 20.2816 0.731834 20.1079C0.864298 20.0626 0.988433 20.0427 1.12621 20.0343L1.18803 20.0313L1.23004 20.0301L1.30554 20.0293L1.37077 20.0292C1.99166 20.0292 2.36731 19.9232 3.03848 19.3859C3.09388 19.3415 3.14969 19.295 3.20591 19.2462L3.29053 19.1713L3.37577 19.093L3.46162 19.0113C3.47598 18.9975 3.49036 18.9834 3.50477 18.9692L3.59154 18.8824L3.67891 18.7921C3.69352 18.7768 3.70816 18.7613 3.72282 18.7457L3.81111 18.6502C3.84064 18.6177 3.87027 18.5847 3.9 18.5511L3.9895 18.4486C4.04938 18.379 4.10965 18.307 4.17034 18.2327L4.26166 18.1194C4.30748 18.0618 4.35352 18.0028 4.3998 17.9425L4.49264 17.8201L4.5861 17.6939C4.60173 17.6726 4.61738 17.6511 4.63305 17.6294L4.72742 17.4977L4.82239 17.3622L4.91797 17.223L5.01416 17.0799L5.11095 16.9331L5.20835 16.7824L5.30636 16.6278C5.32274 16.6017 5.33915 16.5755 5.35559 16.549L5.4545 16.3886C5.47104 16.3616 5.4876 16.3344 5.50419 16.307L5.60401 16.1407L5.70444 15.9704L5.80547 15.7962C5.82236 15.7668 5.83927 15.7373 5.85621 15.7076L5.95815 15.5273L6.0607 15.3431C6.07784 15.312 6.095 15.2808 6.1122 15.2494L6.21565 15.059C6.23294 15.027 6.25026 14.9947 6.2676 14.9623L6.37196 14.7658L6.47692 14.5652L6.58248 14.3604L6.68865 14.1514L6.79542 13.9383C6.81327 13.9024 6.83114 13.8663 6.84904 13.8301Z" fill="url(#paint0_linear_42_515)" fill-opacity="0.6"/>
<path d="M22.688 14.702L22.6662 14.6234C22.2391 13.1028 21.5604 11.9545 20.8873 11.5751C20.5151 11.3653 20.0892 11.3996 19.5766 11.7908L19.5107 11.8427L19.4439 11.8986C19.4326 11.9082 19.4214 11.918 19.4101 11.928L19.3417 11.9898C19.3303 12.0004 19.3188 12.0113 19.3072 12.0222L19.2374 12.0902C19.167 12.1602 19.0952 12.2364 19.0217 12.319L18.9477 12.4038C18.9104 12.4473 18.8728 12.4924 18.8347 12.5392L18.758 12.635C18.7322 12.6677 18.7063 12.7011 18.6801 12.7352L18.6012 12.84L18.521 12.9494L18.4398 13.0634L18.3474 13.1958L18.2549 13.3307L18.1622 13.468L18.0692 13.6081C18.0536 13.6317 18.0381 13.6553 18.0225 13.6792L17.9289 13.8235L17.8348 13.9709L17.7401 14.1214L17.5966 14.3535L17.4511 14.5935L17.3529 14.7581L17.2536 14.9266L17.1531 15.0992L17.0514 15.2759L16.8961 15.549L16.7907 15.7367L16.6295 16.027L16.4084 16.4312L16.2374 16.7478L16.0022 17.1887L15.8811 17.4175L14.538 19.9965L14.284 20.4795L14.0948 20.8353L13.96 21.0863L13.8303 21.3251L13.6238 21.6996L13.5044 21.9122L13.3876 22.1173L13.3107 22.2506C13.2771 22.3086 13.2437 22.3658 13.2105 22.4222L13.1117 22.5889C13.0953 22.6163 13.079 22.6435 13.0628 22.6704L12.966 22.8298C12.9339 22.8821 12.9021 22.9335 12.8705 22.9842L12.7761 23.1338L12.6829 23.2786L12.5907 23.4187L12.4996 23.554C12.4693 23.5983 12.4392 23.6419 12.4093 23.6846L12.3199 23.8106C11.7859 24.5525 11.2943 25.0449 10.7786 25.3225C9.60746 25.9531 8.54206 26.0856 7.48032 25.723C6.86305 25.5122 6.29459 25.1668 5.59555 24.5961L5.4708 24.493L5.34311 24.3851C5.32158 24.3667 5.29991 24.3481 5.27811 24.3293L5.14562 24.2141L5.00965 24.0937L4.86999 23.9682L4.72641 23.8374L4.68529 23.7993L4.59812 23.7162L4.5054 23.625L4.40837 23.5274L4.30824 23.4247L4.20624 23.3185L4.05383 23.1573L3.82132 22.9066L3.58676 22.6487L3.37015 22.4061L3.26648 22.2863C3.26598 22.2856 3.26566 22.285 3.26566 22.285L3.2511 22.2702L3.21653 22.2373C3.21076 22.2319 3.20497 22.2267 3.19918 22.2215L3.16417 22.1911L3.12859 22.1625C3.1226 22.1579 3.11658 22.1533 3.11052 22.1488L3.07367 22.1228C3.06121 22.1144 3.04856 22.1062 3.03569 22.0984L2.99637 22.0757L2.95549 22.0547C2.85808 22.0075 2.74608 21.9739 2.60682 21.9531L2.54543 21.9449C2.51386 21.9412 2.48096 21.9381 2.4466 21.9356L2.3759 21.9313L2.30109 21.9285C2.27544 21.9278 2.24907 21.9274 2.22195 21.9272L2.13824 21.9274C2.1239 21.9276 2.10936 21.9278 2.09462 21.9281L1.95629 21.9323L1.8576 21.9369L1.75347 21.943L1.64367 21.9505L1.46788 21.9644L1.34297 21.9755L1.14346 21.9946C0.60932 22.048 0.133017 21.6583 0.0796034 21.1242C0.0261898 20.5901 0.415892 20.1138 0.950028 20.0604L1.11704 20.0444L1.27891 20.0305L1.43577 20.0186C1.4615 20.0168 1.48704 20.0151 1.51237 20.0135L1.662 20.0048C1.71109 20.0023 1.75941 20.0002 1.80698 19.9983L1.94748 19.9941C3.21517 19.9649 3.93461 20.218 4.60936 20.8795L4.64983 20.9201L5.06345 21.3819L5.25638 21.5937L5.46813 21.8226L5.61916 21.9829L5.7463 22.1152L5.82711 22.1977L5.90363 22.2741L5.9749 22.3434L6.03997 22.4045L6.15457 22.509L6.32098 22.6585L6.42841 22.7534L6.53314 22.8445L6.63528 22.9319L6.73492 23.0156L6.87993 23.1341L6.97377 23.2086C6.98923 23.2207 7.00459 23.2327 7.01988 23.2445L7.11053 23.3135C7.14041 23.3359 7.16996 23.3577 7.19919 23.379L7.28595 23.4409L7.37091 23.4992C7.38492 23.5087 7.39887 23.518 7.41274 23.5271L7.49519 23.5803C8.18925 24.0172 8.71523 24.0797 9.34785 23.8461L9.42279 23.8172L9.49881 23.7857L9.57601 23.7514C9.58898 23.7455 9.602 23.7395 9.61508 23.7333L9.69425 23.6951C9.70756 23.6885 9.72092 23.6819 9.73436 23.6751L9.8157 23.633C9.82939 23.6257 9.84314 23.6184 9.85696 23.611C9.94826 23.5618 10.052 23.4803 10.1673 23.3669L10.2214 23.3122C10.2397 23.2933 10.2583 23.2736 10.2772 23.2531L10.3345 23.1894L10.3935 23.1211L10.4541 23.0484C10.4643 23.0359 10.4746 23.0232 10.485 23.0103L10.5479 22.9308L10.6125 22.8468C10.6233 22.8324 10.6343 22.8179 10.6453 22.8031L10.7121 22.7124L10.7805 22.6171C10.792 22.6009 10.8036 22.5845 10.8153 22.5678L10.8859 22.4659L10.958 22.3595L11.0316 22.2486L11.1067 22.1333L11.1832 22.0135L11.2611 21.8893L11.3404 21.7606L11.4212 21.6275L11.5449 21.4196L11.6291 21.2754L11.7394 21.0837L11.852 20.885L11.9287 20.7479L12.087 20.4613L12.2109 20.234L12.3841 19.9121L12.568 19.5661L14.0993 16.6292L14.3498 16.1555L14.5318 15.815L14.7092 15.4867L14.8822 15.1699L15.0513 14.8643L15.162 14.6665L15.2712 14.4732L15.3789 14.2843L15.4855 14.0996L15.643 13.8302L15.7468 13.6555L15.8496 13.4845L15.9516 13.3171L16.0529 13.153L16.1535 12.9922L16.2537 12.8345L16.3535 12.6797L16.4529 12.5278L16.5522 12.3784L16.6514 12.2316L16.7507 12.087L16.85 11.9447C18.4249 9.70672 20.1992 8.95581 21.8417 9.88163C23.0617 10.5693 23.9859 12.1296 24.5383 14.0996L25.207 16.6472L25.4351 17.4987L25.6149 18.1573L25.6624 18.3277L25.7453 18.6189L25.8089 18.8361L25.9039 19.1539L25.9984 19.4619L26.0612 19.6618L26.1237 19.8572L26.186 20.0483L26.248 20.2349L26.3099 20.417L26.3716 20.5946L26.4331 20.7678L26.4943 20.9364L26.5554 21.1005L26.6163 21.26C26.6264 21.2862 26.6366 21.3122 26.6467 21.338L26.7073 21.4907C26.7275 21.5408 26.7476 21.5901 26.7678 21.6387L26.828 21.782C26.8481 21.829 26.8681 21.8753 26.8882 21.9207L26.9481 22.0547C26.9581 22.0767 26.968 22.0984 26.978 22.12L27.0377 22.247C27.1172 22.4131 27.1963 22.5666 27.275 22.7072L27.334 22.8103C27.3537 22.8439 27.3733 22.8766 27.3929 22.9086C27.526 23.1257 27.652 23.2936 27.7647 23.4088L27.8026 23.4462L27.8363 23.4768L27.8627 23.4988L27.8847 23.4788L27.9165 23.4472C27.9278 23.4354 27.9399 23.4224 27.9527 23.4081L28.1357 23.1963L28.2936 23.0158L28.4464 22.844L28.5941 22.6807L28.7369 22.5258L28.8293 22.4271L28.9197 22.332L29.0081 22.2405L29.0944 22.1525L29.1788 22.068L29.2613 21.987L29.3418 21.9094C29.3551 21.8968 29.3683 21.8843 29.3814 21.8719L29.4592 21.7993L29.5352 21.7301L29.6095 21.6641L29.6821 21.6014L29.753 21.5418L29.8223 21.4854L29.89 21.432C29.9011 21.4234 29.9122 21.4149 29.9232 21.4065L29.9887 21.3578L30.0526 21.312L30.1151 21.2692L30.1762 21.2293L30.236 21.1923L30.2944 21.1582C30.3233 21.1418 30.3517 21.1264 30.3797 21.1121L30.435 21.0848L30.4892 21.0602C30.4981 21.0564 30.507 21.0526 30.5158 21.0489L30.5683 21.0283C30.603 21.0154 30.6369 21.0042 30.6702 20.9947L30.7196 20.9817C30.8011 20.9621 30.8787 20.9527 30.9533 20.9527C31.4901 20.9527 31.9252 21.3879 31.9252 21.9247C31.9252 22.3565 31.6437 22.7225 31.2542 22.8492L31.2398 22.8534L31.213 22.8714L31.1644 22.9059L31.1014 22.9536L31.0443 22.999L30.9843 23.0486L30.9213 23.1024L30.8555 23.1606L30.7866 23.2231C30.7749 23.2339 30.7631 23.2449 30.7511 23.2561L30.6778 23.3252L30.6015 23.3989L30.5222 23.4771L30.4399 23.5599L30.3546 23.6474L30.2662 23.7395L30.1748 23.8364L30.0802 23.938L29.9826 24.0445L29.8304 24.2134L29.725 24.3323L29.6164 24.4561L29.5047 24.585C29.4858 24.6069 29.4668 24.629 29.4477 24.6514C28.8371 25.3623 28.0634 25.6506 27.272 25.3693C26.672 25.1561 26.1866 24.6597 25.7359 23.925L25.6987 23.8637L25.6247 23.7377C25.391 23.331 25.1638 22.8537 24.9391 22.3046L24.8683 22.1288C24.8329 22.0397 24.7975 21.9488 24.7622 21.8562L24.6917 21.6684C24.6799 21.6367 24.6682 21.6048 24.6564 21.5727L24.586 21.3777L24.5156 21.1779L24.4451 20.9733L24.3747 20.7639C24.3629 20.7285 24.3512 20.693 24.3394 20.6573L24.2689 20.4406L24.1983 20.219L24.1275 19.9925L24.0566 19.7612L23.9856 19.5249L23.9143 19.2838L23.8333 19.0038L23.7419 18.6774L23.5415 17.9429L23.3723 17.3116L22.8834 15.4574L22.688 14.702Z" fill="url(#paint1_linear_42_515)"/>
<defs>
<linearGradient id="paint0_linear_42_515" x1="7.17731" y1="15.704" x2="24.0887" y2="36.0865" gradientUnits="userSpaceOnUse">
<stop stop-color="#7B4EFF"/>
<stop offset="1" stop-color="#FFA13C"/>
</linearGradient>
<linearGradient id="paint1_linear_42_515" x1="12.9346" y1="19.8161" x2="24.8646" y2="36.867" gradientUnits="userSpaceOnUse">
<stop stop-color="#7B4EFF"/>
<stop offset="1" stop-color="#FFA13C"/>
</linearGradient>
</defs>
</svg>
